<svg width="64" height="64" viewBox="0 0 64 64" fill="none" xmlns="http://www.w3.org/2000/svg">
  <rect width="64" height="64" rx="12" fill="#6F4CFF" fill-opacity="0.1"/>
  <path d="M32 44C38.6274 44 44 38.6274 44 32C44 25.3726 38.6274 20 32 20C25.3726 20 20 25.3726 20 32C20 38.6274 25.3726 44 32 44Z" stroke="#6F4CFF" stroke-width="2" stroke-linecap="round" stroke-linejoin="round"/>
  <path d="M32 36C34.2091 36 36 34.2091 36 32C36 29.7909 34.2091 28 32 28C29.7909 28 28 29.7909 28 32C28 34.2091 29.7909 36 32 36Z" stroke="#6F4CFF" stroke-width="2" stroke-linecap="round" stroke-linejoin="round"/>
  <path d="M32 20V16" stroke="#6F4CFF" stroke-width="2" stroke-linecap="round" stroke-linejoin="round"/>
  <path d="M20 32H16" stroke="#6F4CFF" stroke-width="2" stroke-linecap="round" stroke-linejoin="round"/>
  <path d="M32 44V48" stroke="#6F4CFF" stroke-width="2" stroke-linecap="round" stroke-linejoin="round"/>
  <path d="M44 32H48" stroke="#6F4CFF" stroke-width="2" stroke-linecap="round" stroke-linejoin="round"/>
</svg>
